<svg width="46" height="19" xmlns="http://www.w3.org/2000/svg"><path d="M2.79 15H1.04V3.727h7.038v1.507H2.79v3.57h4.844v1.477H2.789V15zm8.562-9.805V9.25h2.453c.677 0 1.2-.177 1.57-.531.37-.354.555-.854.555-1.5 0-.63-.193-1.125-.578-1.485-.386-.359-.917-.539-1.594-.539h-2.406zm0 5.47V15h-1.75V3.727h4.367c1.156 0 2.073.312 2.75.937.677.62 1.015 1.456 1.015 2.508 0 .766-.195 1.437-.586 2.016a3.043 3.043 0 01-1.601 1.203L18.07 15h-2.015l-2.297-4.336h-2.406zm12.953-7.126c1.62 0 2.903.523 3.851 1.57.953 1.047 1.43 2.467 1.43 4.258 0 1.792-.474 3.211-1.422 4.258-.948 1.042-2.234 1.563-3.86 1.563-1.624 0-2.91-.521-3.859-1.563-.948-1.047-1.422-2.466-1.422-4.258 0-1.791.474-3.21 1.422-4.258.948-1.046 2.235-1.57 3.86-1.57zm0 1.54c-1.073 0-1.925.385-2.555 1.155-.625.771-.938 1.815-.938 3.133 0 1.313.313 2.354.938 3.125.63.771 1.482 1.156 2.555 1.156 1.067 0 1.914-.385 2.539-1.156.63-.77.945-1.812.945-3.125 0-1.318-.315-2.362-.945-3.133-.625-.77-1.472-1.156-2.54-1.156z" fill="#262626"/><path d="M39.5 4.453a3.25 3.25 0 014.593 4.585l-4.594 4.6-4.592-4.6a3.25 3.25 0 014.594-4.585z" fill="#83C1FA"/></svg>