<svg xmlns="http://www.w3.org/2000/svg" xmlns:xlink="http://www.w3.org/1999/xlink"><defs><clipPath id="clip0_47_512"><path fill="#fff" d="M0 0h24v24H0z"/></clipPath></defs><symbol id="icon-arrow" viewBox="0 0 29 29"><path d="M21.975 12.708l-9.61-9.61L14.897.564 28.833 14.5 14.898 28.436l-2.534-2.534 9.61-9.61H.168v-3.584h21.808z" fill="#4F4F4F"/></symbol><symbol id="icon-burger" viewBox="0 0 46 46"><circle cx="23" cy="23" r="22.5" stroke="#262626"/><path fill="#262626" d="M10 16h26v1H10zM10 23h19v1H10zM10 30h23v1H10z"/></symbol><symbol id="icon-close" viewBox="0 0 24 24"><g clip-path="url(#clip0_47_512)" fill="#828282"><path d="M23.716.284a.97.97 0 00-1.37 0L.283 22.345a.97.97 0 101.371 1.371l22.061-22.06a.97.97 0 000-1.372z"/><path d="M23.716 22.345L1.655.285a.97.97 0 10-1.371 1.37l22.06 22.061a.967.967 0 001.372 0 .97.97 0 000-1.37z"/></g></symbol><symbol id="icon-day-mode" viewBox="0 0 24 24"><path d="M12 18a6 6 0 110-12 6 6 0 010 12zM11 1h2v3h-2V1zm0 19h2v3h-2v-3zM3.515 4.929l1.414-1.414L7.05 5.636 5.636 7.05 3.515 4.93v-.001zM16.95 18.364l1.414-1.414 2.121 2.121-1.414 1.414-2.121-2.121zm2.121-14.85l1.414 1.415-2.121 2.121-1.414-1.414 2.121-2.121v-.001zM5.636 16.95l1.414 1.414-2.121 2.121-1.414-1.414 2.121-2.121zM23 11v2h-3v-2h3zM4 11v2H1v-2h3z" fill="#fff"/></symbol><symbol id="icon-details"><circle cx="15" cy="15" r="15" fill="#F2F2F2"/><path d="M15 17.074l-4.537-4.537-1.297 1.296L15 19.667l5.834-5.834-1.296-1.296L15 17.074z" fill="#262626"/></symbol><symbol id="icon-facebook"><path d="M25.167 41.375h8.958l3.583-14.334H25.167v-7.166c0-3.691 0-7.167 7.166-7.167h5.375V.668C36.54.514 32.13.167 27.471.167c-9.729 0-16.638 5.937-16.638 16.841v10.034H.083v14.333h10.75v30.458h14.334V41.375z" fill="#E0E0E0"/></symbol><symbol id="icon-link"><path d="M10 6v2H5v11h11v-5h2v6a1 1 0 01-1 1H4a1 1 0 01-1-1V7a1 1 0 011-1h6zm11-3v9l-3.794-3.793-5.999 6-1.414-1.414 5.999-6L12 3h9z" fill="#262626"/></symbol><symbol id="icon-mail"><path d="M3.75.75h64.5a3.583 3.583 0 013.583 3.583v57.334a3.583 3.583 0 01-3.583 3.583H3.75a3.583 3.583 0 01-3.583-3.583V4.333A3.583 3.583 0 013.75.75zm32.465 31.114L13.239 12.353l-4.64 5.46 27.663 23.49 27.165-23.507-4.687-5.422-22.521 19.49h-.004z" fill="#E0E0E0"/></symbol><symbol id="icon-night-mode" viewBox="0 0 24 24"><path d="M11.38 2.019a7.5 7.5 0 1010.6 10.6C21.662 17.854 17.316 22 12.001 22 6.477 22 2 17.523 2 12c0-5.315 4.146-9.661 9.38-9.981z" fill="#262626"/></symbol><symbol id="icon-play" viewBox="0 0 27 32"><path d="M27 16L0 31.588V.413L27 16z" fill="#83C1FA"/></symbol><symbol id="icon-telegram"><path d="M19.443 36.345L2.638 31.122c-3.633-1.107-3.653-3.601.814-5.392L68.93.517c3.801-1.543 5.954.409 4.723 5.297L62.505 58.253c-.78 3.735-3.034 4.627-6.162 2.903l-17.162-12.66-7.999 7.698c-.82.791-1.486 1.469-2.751 1.636-1.258.175-2.294-.2-3.054-2.28l-5.853-19.252-.081.054v-.007z" fill="#E0E0E0"/></symbol></svg>