<svg xmlns="http://www.w3.org/2000/svg" xmlns:xlink="http://www.w3.org/1999/xlink"><symbol id="icon-arrow"><path d="M21.975 12.708l-9.61-9.61L14.897.564 28.833 14.5 14.898 28.436l-2.534-2.534 9.61-9.61H.168v-3.584h21.808z" fill="#4F4F4F"/></symbol><symbol id="icon-burger"><circle cx="23" cy="23" r="22.5" stroke="#262626"/><path fill="#262626" d="M10 16h26v1H10zM10 23h19v1H10zM10 30h23v1H10z"/></symbol><symbol id="icon-day-mode"><path d="M12 18a6 6 0 110-12 6 6 0 010 12zM11 1h2v3h-2V1zm0 19h2v3h-2v-3zM3.515 4.929l1.414-1.414L7.05 5.636 5.636 7.05 3.515 4.93v-.001zM16.95 18.364l1.414-1.414 2.121 2.121-1.414 1.414-2.121-2.121zm2.121-14.85l1.414 1.415-2.121 2.121-1.414-1.414 2.121-2.121v-.001zM5.636 16.95l1.414 1.414-2.121 2.121-1.414-1.414 2.121-2.121zM23 11v2h-3v-2h3zM4 11v2H1v-2h3z" fill="#fff"/></symbol><symbol id="icon-facebook"><path d="M25.167 41.375h8.958l3.583-14.333H25.167v-7.167c0-3.69 0-7.167 7.166-7.167h5.375V.668C36.54.514 32.13.167 27.471.167c-9.73 0-16.638 5.937-16.638 16.841v10.034H.083v14.333h10.75v30.458h14.334V41.375z" fill="#3C3C3C"/></symbol><symbol id="icon-mail"><path d="M.75.75h64.5a3.583 3.583 0 013.583 3.583v57.334a3.583 3.583 0 01-3.583 3.583H.75a3.583 3.583 0 01-3.583-3.583V4.333A3.583 3.583 0 01.75.75zm32.465 31.114L10.24 12.353l-4.64 5.46 27.663 23.49 27.165-23.507-4.687-5.422-22.521 19.49h-.004z" fill="#3C3C3C"/></symbol><symbol id="icon-night-mode"><path d="M11.38 2.019a7.5 7.5 0 1010.6 10.6C21.662 17.854 17.316 22 12.001 22 6.477 22 2 17.523 2 12c0-5.315 4.146-9.661 9.38-9.981z" fill="#262626"/></symbol><symbol id="icon-telegram"><path d="M19.443 36.345L2.638 31.122c-3.633-1.107-3.653-3.601.814-5.392L68.93.517c3.801-1.543 5.954.409 4.723 5.297L62.505 58.253c-.78 3.735-3.034 4.627-6.162 2.903l-17.162-12.66-7.999 7.698c-.82.791-1.486 1.469-2.751 1.636-1.258.175-2.294-.2-3.054-2.28l-5.853-19.252-.081.054v-.007z" fill="#3C3C3C"/></symbol></svg>