<svg width="24" height="24" viewBox="0 0 24 24" fill="none" xmlns="http://www.w3.org/2000/svg">
<g clip-path="url(#clip0_47_512)">
<path d="M23.7163 0.284201C23.3377 -0.0944082 22.7239 -0.0944082 22.3453 0.284201L0.284201 22.3452C-0.0944082 22.7238 -0.0944082 23.3377 0.284201 23.7163C0.473482 23.9056 0.721639 24.0002 0.969748 24.0002C1.21786 24.0002 1.46597 23.9056 1.65529 23.7162L23.7163 1.6552C24.0949 1.27664 24.0949 0.662811 23.7163 0.284201Z" fill="#828282"/>
<path d="M23.7158 22.3452L1.65477 0.284201C1.27621 -0.0944081 0.662336 -0.0944081 0.283774 0.284201C-0.0948354 0.662763 -0.0948354 1.27659 0.283774 1.6552L22.3448 23.7163C22.5341 23.9056 22.7823 24.0002 23.0304 24.0002C23.2785 24.0002 23.5266 23.9056 23.7159 23.7163C24.0944 23.3376 24.0944 22.7238 23.7158 22.3452Z" fill="#828282"/>
</g>
<defs>
<clipPath id="clip0_47_512">
<rect width="24" height="24" fill="white"/>
</clipPath>
</defs>
</svg>
