<svg width="72" height="66" viewBox="0 0 72 66" fill="none" xmlns="http://www.w3.org/2000/svg">
<path d="M3.75001 0.75H68.25C69.2004 0.75 70.1118 1.12753 70.7838 1.79953C71.4558 2.47154 71.8333 3.38297 71.8333 4.33333V61.6667C71.8333 62.617 71.4558 63.5285 70.7838 64.2005C70.1118 64.8725 69.2004 65.25 68.25 65.25H3.75001C2.79965 65.25 1.88821 64.8725 1.21621 64.2005C0.5442 63.5285 0.166672 62.617 0.166672 61.6667V4.33333C0.166672 3.38297 0.5442 2.47154 1.21621 1.79953C1.88821 1.12753 2.79965 0.75 3.75001 0.75ZM36.215 31.8641L13.2387 12.3528L8.59826 17.8138L36.2616 41.3026L63.4268 17.7959L58.7398 12.3743L36.2186 31.8641H36.215Z" fill="#E0E0E0"/>
</svg>
